<svg version="1.1" xmlns="http://www.w3.org/2000/svg" xmlns:xlink="http://www.w3.org/1999/xlink" width="176.45831" height="57.10948" viewBox="0,0,176.45831,57.10948"><g transform="translate(-151.83334,-151.44526)"><g data-paper-data="{&quot;isPaintingLayer&quot;:true}" stroke-linejoin="miter" stroke-miterlimit="10" stroke-dasharray="" stroke-dashoffset="0" style="mix-blend-mode: normal"><g><g><path d="M157.46181,156.35392l4.91991,-4.90866l4.91648,4.92773l-4.91991,4.90866z" fill="#20bdce" fill-rule="nonzero" stroke="none" stroke-width="0" stroke-linecap="butt"/><path d="M163.03474,161.98856l4.91994,-4.90871l4.90052,4.91173l-4.91994,4.90871z" fill="#20bdce" fill-rule="nonzero" stroke="none" stroke-width="0" stroke-linecap="butt"/><path d="M157.43068,167.57981l4.911,-4.89977l4.90052,4.91175l-4.911,4.89977z" fill="#2a688f" fill-rule="nonzero" stroke="none" stroke-width="0" stroke-linecap="butt"/><path d="M151.83334,161.96578l4.91093,-4.89972l4.91648,4.92775l-4.91095,4.89972z" fill="#20bdce" fill-rule="nonzero" stroke="none" stroke-width="0" stroke-linecap="butt"/><path d="M198.02517,165.46659c1.14362,0.15521 1.67384,0.69257 1.67384,1.67022c-0.0001,0.11642 -0.01112,0.23257 -0.03289,0.34695c-0.16031,0.84734 -0.90004,1.63878 -2.04307,2.00959c-0.47274,0.14961 -0.96606,0.22398 -1.46188,0.22043c-0.83831,0 -1.53685,-0.15856 -2.06082,-0.44115c-0.65906,-0.30956 -1.08099,-0.97091 -1.08393,-1.69903c0.00037,-0.12025 0.01414,-0.24009 0.04107,-0.35729c0.12638,-0.5579 0.53621,-1.11566 1.12366,-1.5354v-0.05823c-0.0169,-0.01003 -0.0336,-0.02036 -0.05009,-0.03102c-0.24749,-0.15971 -0.44929,-0.39221 -0.55471,-0.69707c-0.05394,-0.15936 -0.08082,-0.32664 -0.0795,-0.49487c0,-0.69883 0.50956,-1.17927 0.84443,-1.41223v-0.05823c-0.01387,-0.01217 -0.0276,-0.02452 -0.0412,-0.03699c-0.46721,-0.42862 -0.93425,-1.16894 -0.93425,-2.07408c-0.00013,-0.15732 0.01208,-0.3144 0.03654,-0.46982c0.18242,-1.29215 1.29375,-2.2493 2.59865,-2.23817c0.43677,0 0.78619,0.10191 1.00457,0.18926h2.5624v0.48045h-1.83444c0.00503,0.00421 0.01001,0.00842 0.01499,0.01267c0.31287,0.26658 0.56563,0.62241 0.7201,1.04709c0.11264,0.31387 0.16937,0.64505 0.16758,0.97851c0.0001,0.12915 -0.00822,0.25818 -0.02489,0.38626c-0.14727,1.33032 -1.27184,2.33685 -2.6103,2.3363c-0.01071,0.00002 -0.02146,0 -0.03218,-0.00013c-0.42933,-0.00625 -0.92275,-0.13612 -1.26358,-0.34927c-0.22456,0.16576 -0.40991,0.37889 -0.54291,0.62429c-0.08402,0.16773 -0.12745,0.35285 -0.12681,0.54044c0,0.4937 0.23018,0.91416 1.01854,1.0308c0.15934,0.02238 0.32012,0.0331 0.48103,0.03203h1.70341c0.26299,-0.0017 0.52579,0.01427 0.78663,0.04775zM204.96941,158.29944h0.43677l0.08735,1.22296h0.02913c0.18975,-0.19555 0.3887,-0.38191 0.59618,-0.55849c0.5571,-0.52611 1.28767,-0.82984 2.05355,-0.85375c0.14069,-0.00038 0.28128,0.00802 0.42091,0.02519c1.28426,0.16161 1.89398,1.10708 1.89398,2.90119v4.93552h-0.52412v-4.86273c0,-1.68885 -0.53868,-2.51872 -1.849,-2.51872c-0.43331,-0.00094 -0.8587,0.1164 -1.23025,0.33938c-0.30093,0.1734 -0.60201,0.41304 -0.92798,0.7182c-0.15774,0.14851 -0.31191,0.30073 -0.46241,0.45656v5.86731h-0.52412zM215.23354,158.59063c-0.564,0 -0.99234,0.14442 -1.294,0.3714c-0.35236,0.26117 -0.55862,0.67506 -0.555,1.11363c-0.00267,0.187 0.03956,0.37195 0.12319,0.53927c0.27212,0.53519 0.95668,0.80598 1.66759,1.07679c0.97706,0.37229 2.01905,0.68866 2.39861,1.5654c0.10296,0.24644 0.15378,0.51155 0.14923,0.7786c0.00448,0.50707 -0.18398,0.99687 -0.52718,1.37015c-0.24487,0.26526 -0.57246,0.47697 -0.97764,0.60813c-0.32336,0.10106 -0.66057,0.15078 -0.99934,0.14734c-1.15017,0 -2.11107,-0.48045 -2.79533,-1.04826l0.33486,-0.4222c0.18931,0.16628 0.39052,0.31855 0.60201,0.45554c0.50184,0.31943 1.09075,0.53447 1.88758,0.53447c0.1232,0.00028 0.24632,-0.00705 0.36864,-0.02198c0.27589,-0.03435 0.51583,-0.10761 0.7195,-0.21126c0.52782,-0.25652 0.85878,-0.79605 0.84822,-1.38281c0,-1.00457 -1.01915,-1.45592 -1.92181,-1.7762c-0.07624,-0.02756 -0.1524,-0.05523 -0.22857,-0.08297c-0.8121,-0.29685 -1.62407,-0.62809 -1.98878,-1.28543c-0.13584,-0.25002 -0.20455,-0.53096 -0.19946,-0.81543c0,-1.0628 0.82985,-1.9946 2.4168,-1.9946c0.40199,0 0.81589,0.08692 1.19617,0.23615c0.33841,0.13006 0.65258,0.31599 0.92945,0.55003l-0.30575,0.3931c-0.50956,-0.37852 -1.04825,-0.69884 -1.849,-0.69884zM177.04508,155.4022h2.76622c2.11107,0 3.45052,0.81529 3.45052,2.5624c0,0.72911 -0.24634,1.34744 -0.71908,1.77868c-0.27429,0.2447 -0.60109,0.42318 -0.95523,0.52165v0.07278c1.39768,0.21839 2.32944,1.09194 2.32944,2.5624c0,2.00914 -1.51414,3.07198 -3.91639,3.07198h-2.95548zM191.2597,165.50866c-0.41857,0.24721 -0.88767,0.49457 -1.54909,0.59997c-0.2309,0.03597 -0.46428,0.05359 -0.69797,0.0527c-0.65908,0.00588 -1.3055,-0.181 -1.85978,-0.53768c-0.60173,-0.39193 -1.08116,-0.98899 -1.36462,-1.76091c-0.19443,-0.54721 -0.29069,-1.12447 -0.28433,-1.70515c0,-1.17376 0.35189,-2.13656 0.90121,-2.82811c0.57161,-0.75382 1.45779,-1.20336 2.40371,-1.21932c0.04655,0.00003 0.0931,0.00095 0.13962,0.00276c1.30144,0.04994 2.23003,0.80366 2.5911,2.15183c0.11552,0.45187 0.17151,0.91689 0.16655,1.38326c0.00002,0.02636 -0.00003,0.0527 -0.00013,0.07906c-0.00043,0.07936 -0.00189,0.16059 -0.00814,0.24868c-0.00456,0.06571 -0.01152,0.13121 -0.02083,0.1964h-5.6198c-0.00618,0.5625 0.09608,1.12092 0.30123,1.64473c0.40637,1.12928 1.4833,1.87736 2.6834,1.86401c0.23096,0.00084 0.46149,-0.02017 0.68851,-0.06275c0.51602,-0.10228 1.00228,-0.3197 1.42256,-0.63608l0.23295,0.45133c-0.04194,0.02524 -0.08397,0.05033 -0.12608,0.07527zM228.43863,158.77989h-1.06282v-0.40764l1.06282,-0.07279v-1.86357c0,-1.49958 0.66971,-2.21298 1.7762,-2.21298c0.09333,0.00025 0.18657,0.00652 0.2791,0.01877c0.17019,0.02213 0.3468,0.06348 0.52355,0.12259c0.09315,0.03114 0.18481,0.06657 0.27472,0.10614l-0.16014,0.45133c-0.14508,-0.07299 -0.29757,-0.13029 -0.45482,-0.17092c-0.15578,-0.0405 -0.31601,-0.06133 -0.47697,-0.06201c-0.02185,0 -0.04369,0.00043 -0.0655,0.0013c-0.64176,0.02562 -1.0021,0.43154 -1.13123,1.1362c-0.0389,0.22535 -0.0574,0.45372 -0.05533,0.68239v1.79076h1.81988v0.48045h-1.81988v7.19219h-0.50956zM235.44156,165.92534c-0.30167,0.10076 -0.60347,0.18343 -0.83278,0.21823c-0.06644,0.01083 -0.1336,0.01678 -0.20091,0.01777c-0.19768,0.00212 -0.39495,-0.01859 -0.58791,-0.06173c-0.94662,-0.22289 -1.21743,-1.03297 -1.21743,-2.16581v-5.15391h-1.22298v-0.40765l1.22298,-0.07279l0.05823,-2.24209h0.45135v2.24209h2.27121v0.48045h-2.27121v5.22672c0,0.82186 0.15053,1.43292 0.84282,1.61693c0.16237,0.04048 0.3293,0.05977 0.49661,0.05736c0.0571,-0.0003 0.11413,-0.00399 0.17077,-0.01107c0.26586,-0.03218 0.57888,-0.12944 0.80468,-0.23645l0.17472,0.43677c-0.05322,0.0189 -0.10659,0.03729 -0.16014,0.05518zM222.57133,166.16135c-0.75387,0.00496 -1.48522,-0.25672 -2.06477,-0.73887c-0.47229,-0.39368 -0.85083,-0.93805 -1.08392,-1.61706c-0.17656,-0.53121 -0.26379,-1.08804 -0.25814,-1.6478c0,-0.89582 0.19,-1.65798 0.5151,-2.27121c0.54876,-1.09284 1.66886,-1.78085 2.89173,-1.77619c0.78678,-0.00568 1.54771,0.28056 2.13567,0.80336c0.76856,0.68383 1.27115,1.78714 1.27115,3.24406c0.00018,0.18069 -0.00811,0.36125 -0.02489,0.54116c-0.20761,2.20031 -1.6823,3.46259 -3.38192,3.46259zM219.7256,162.44689c-0.0053,-0.09633 -0.00791,-0.19279 -0.00787,-0.28926c0,-2.11107 1.22296,-3.56699 2.85358,-3.56699c1.53204,0 2.71718,1.28529 2.85475,3.19166c0.00896,0.12491 0.01344,0.25009 0.01341,0.37533c0.0054,0.53982 -0.08648,1.07619 -0.27125,1.58343c-0.23411,0.62284 -0.60872,1.12207 -1.07942,1.45811c-0.44247,0.31639 -0.97355,0.48501 -1.51749,0.48175c-1.09025,-0.01045 -2.06761,-0.67447 -2.47897,-1.68419c-0.20601,-0.4474 -0.33458,-0.96992 -0.36675,-1.5498zM179.81131,165.49163c0.24788,0.00062 0.49566,-0.01041 0.74252,-0.03306c1.24538,-0.11764 2.14266,-0.55092 2.56079,-1.34948c0.18273,-0.36594 0.27324,-0.77095 0.26366,-1.17987c0,-1.25733 -0.80774,-1.9943 -2.24719,-2.25287c-0.43595,-0.07403 -0.87761,-0.1094 -1.31979,-0.1057h-2.22754v4.92096zM179.49101,160.0902c0.12991,0.00008 0.25981,-0.00257 0.3896,-0.00801c2.01337,-0.08575 2.8134,-0.85491 2.8134,-2.0885c0,-1.55783 -1.0628,-2.12561 -3.10108,-2.12561h-2.00916v4.22212zM201.40243,158.29944h0.52414v7.67264h-0.52414zM195.53439,165.94237c-0.09041,-0.00291 -0.28535,-0.0179 -0.51933,-0.05489c-0.1285,-0.02009 -0.25614,-0.0453 -0.38262,-0.07557c-0.10512,0.07052 -0.20589,0.14729 -0.30182,0.22989c-0.36921,0.31883 -0.59008,0.67263 -0.69244,1.02015c-0.04511,0.1519 -0.0682,0.30949 -0.06856,0.46794c-0.00165,0.20801 0.04155,0.41394 0.12666,0.60375c0.30937,0.68137 1.17623,1.11422 2.49397,1.11422c0.16868,0.00022 0.33725,-0.00898 0.50492,-0.02751c1.53555,-0.17181 2.46513,-1.11641 2.46513,-2.02532c0.00005,-0.04319 -0.0015,-0.08635 -0.00466,-0.12942c-0.04702,-0.63434 -0.45016,-0.96527 -1.17884,-1.07766c-0.22037,-0.03182 -0.44286,-0.04685 -0.66551,-0.04498h-1.74709c-0.00996,-0.00003 -0.01989,-0.00023 -0.02984,-0.00059zM191.13085,160.80564c-0.23745,-1.48545 -1.10257,-2.21502 -2.32202,-2.21502c-0.54485,0.0017 -1.07335,0.1862 -1.5009,0.52399c-0.66986,0.51991 -1.1541,1.40786 -1.25078,2.57709h5.13935c0.0015,-0.29662 -0.02044,-0.5929 -0.06566,-0.88608zM193.91907,160.81816c-0.00406,-0.34459 0.06243,-0.68636 0.19538,-1.00429c0.31977,-0.755 1.06682,-1.23938 1.88656,-1.22325c0.93652,-0.01753 1.76349,0.60793 2.00157,1.51385c0.06428,0.2324 0.09624,0.47256 0.09492,0.71368c0.00404,0.40737 -0.09656,0.80898 -0.29221,1.16632c-0.3604,0.66067 -1.05174,1.07285 -1.8043,1.07578c-0.87025,-0.00969 -1.64175,-0.562 -1.93142,-1.38267c-0.10109,-0.27519 -0.15207,-0.56626 -0.15052,-0.85942zM201.67904,156.36309c-0.11125,0.00242 -0.22028,-0.03146 -0.31056,-0.09653c-0.07978,-0.0594 -0.14107,-0.14517 -0.17703,-0.25435c-0.02517,-0.07956 -0.03752,-0.1626 -0.03654,-0.24604c-0.00007,-0.03834 0.00321,-0.07665 0.00976,-0.11445c0.04556,-0.25988 0.24649,-0.43881 0.51438,-0.43881c0.17973,-0.0011 0.34686,0.0922 0.44027,0.24577c0.05596,0.09273 0.08501,0.19919 0.08387,0.30748c-0.00002,0.00456 -0.00005,0.00913 -0.00015,0.01369c-0.00553,0.3701 -0.2363,0.58324 -0.52397,0.58324z" fill="#000000" fill-rule="evenodd" stroke="#000000" stroke-width="0.05" stroke-linecap="round"/><path d="M240.39896,153.66564h0.45285l0.53437,1.28611l0.31698,0.87852h0.03624l0.31699,-0.87852l0.51625,-1.28611h0.45285v3.05222h-0.30794v-1.68463l0.03624,-0.96004h-0.03624l-0.85136,2.16464h-0.30795l-0.8423,-2.16462h-0.04528l0.04528,0.96004v1.68463h-0.31699zM238.46075,153.95547h-1.0959v-0.28983h2.49975v0.28983h-1.0959v2.76239h-0.30794z" fill="#000000" fill-rule="evenodd" stroke="#000000" stroke-width="0.05" stroke-linecap="round"/></g><g fill="#000000" fill-rule="evenodd" stroke="#000000" stroke-linecap="round"><path d="M270.11055,184.29159c0.0891,0.05891 0.17763,0.1187 0.26555,0.17937c1.47535,1.01484 5.04974,3.71861 5.93776,4.4349l-0.55005,0.79451c-0.07606,-0.07555 -0.15361,-0.14962 -0.23256,-0.22215c-1.12791,-1.04204 -3.91847,-3.22573 -5.42071,-4.33102v5.37825h-0.88618v-5.22544c-1.41271,2.01836 -3.40876,4.07829 -5.24836,5.47481c-0.3672,0.28043 -0.74702,0.5439 -1.13829,0.78961c-0.00133,-0.00264 -0.00265,-0.00528 -0.00398,-0.00794c-0.12285,-0.24446 -0.33461,-0.60536 -0.54606,-0.78658c2.26131,-1.34456 5.19488,-4.09479 6.78391,-6.66168h-6.47832v-0.88618h6.63111v-5.25601c-0.45676,0.04775 -0.91371,0.09369 -1.37083,0.13782c-0.80154,0.07732 -1.60308,0.14881 -2.38842,0.21298c-0.76325,0.06275 -1.52704,0.11898 -2.29126,0.16868c-0.01212,-0.04807 -0.02566,-0.09577 -0.04064,-0.14301c-0.02598,-0.0825 -0.05714,-0.16837 -0.0929,-0.25424c-0.05675,-0.13765 -0.12451,-0.27051 -0.20261,-0.39727c0.30565,-0.023 0.61123,-0.04694 0.91674,-0.0718c3.14901,-0.25608 6.73624,-0.64845 9.27929,-1.16427c0.53811,-0.10613 1.07169,-0.23406 1.5994,-0.3835l0.67228,0.79451c-0.25802,0.06712 -0.51697,0.1306 -0.77679,0.19037c-1.26846,0.29274 -2.7811,0.56075 -4.4181,0.78748v5.37825h1.43623c0.07968,-0.13973 0.15751,-0.28051 0.23347,-0.42232c0.54118,-1.00811 1.13035,-2.3004 1.56947,-3.37943c0.10575,-0.25913 0.20762,-0.51982 0.30558,-0.782l0.91674,0.39726c-0.64171,1.37512 -1.40567,2.99471 -2.07794,4.18647h3.2086v0.88617h-5.59214zM313.13644,188.41694c0.1532,1.0014 0.34647,1.99625 0.57939,2.98217c0.67473,2.81746 1.66328,5.16708 3.20768,7.29943c1.08913,1.47636 2.36333,2.80673 3.79134,3.9585c-0.01404,0.00878 -0.02789,0.01785 -0.04156,0.02719c-0.19801,0.13568 -0.4104,0.3615 -0.55829,0.56777c-0.02527,0.03518 -0.04943,0.07116 -0.07242,0.10787c-0.26618,-0.22254 -0.52792,-0.45034 -0.78504,-0.68328c-2.82755,-2.5626 -4.53606,-5.29389 -5.65296,-8.61679c-0.59581,-1.84131 -1.03858,-3.72869 -1.32378,-5.64287h-5.19488c0.00059,0.66857 -0.01092,1.33708 -0.03454,2.00523c-0.1537,4.23933 -0.88711,9.22459 -3.54078,12.87659c-0.00579,-0.00693 -0.0117,-0.01376 -0.01773,-0.02046c-0.16165,-0.1806 -0.50848,-0.41192 -0.68512,-0.52956c1.61742,-2.36118 2.63457,-5.08124 2.96323,-7.92433c0.34255,-2.30012 0.39817,-4.59992 0.39817,-6.62134v-10.97037h12.80386v11.18429zM282.15047,201.64861c0,0.00234 0,0.00469 0,0.00703c-0.00061,0.31321 -0.03454,0.55463 -0.1039,0.74379c-0.09302,0.26499 -0.30255,0.47261 -0.56838,0.56319c-0.07143,0.02468 -0.14429,0.04499 -0.21819,0.06081c-0.41651,0.09198 -1.03348,0.11489 -1.86771,0.12071c-0.30293,0.00161 -0.60586,0.00224 -0.9088,0.00183c-0.04645,-0.1864 -0.12864,-0.47946 -0.23286,-0.74349c-0.031,-0.07959 -0.06547,-0.1578 -0.10329,-0.23438c0.22917,0.00563 0.45836,0.0103 0.68756,0.01406c0.81346,0.01315 1.50958,0.01161 1.87018,-0.00398c0.05406,-0.00215 0.10805,-0.00551 0.16196,-0.01009c0.0525,0.00078 0.10496,-0.0031 0.15676,-0.01161c0.15462,-0.02842 0.23622,-0.11306 0.26188,-0.31352c0.00651,-0.05435 0.00956,-0.10905 0.00917,-0.16379v-10.14531c-1.5279,1.80293 -3.11693,3.54475 -4.43092,5.0421l-0.67228,-0.67227c0.3361,-0.35335 0.66941,-0.70937 0.99986,-1.06801c1.1774,-1.27519 2.65826,-2.93021 4.10334,-4.58525v-12.03991h-4.70595v-0.88617h5.56159zM288.68993,201.67917c0,0.50145 -0.09229,0.81864 -0.29397,1.0292c-0.1152,0.11472 -0.25503,0.20167 -0.40887,0.25425c-0.02864,0.01064 -0.05757,0.02042 -0.08678,0.02933c-0.3832,0.11826 -0.99742,0.16318 -1.84236,0.17784c-0.30423,0.0049 -0.60851,0.00713 -0.91278,0.00673c-0.06111,-0.27502 -0.24446,-0.70284 -0.39726,-1.00841c0.22336,0.00563 0.44674,0.0103 0.67014,0.01406c0.9357,0.01528 1.70391,0.01071 1.92731,-0.01406c0.28359,0 0.41498,-0.0654 0.44921,-0.32423c0.00662,-0.05464 0.00968,-0.10966 0.00918,-0.16471v-9.90084c-0.19654,0.2358 -0.39343,0.47131 -0.5907,0.7065c-1.1823,1.41025 -2.36458,2.79454 -3.41243,3.99944l-0.70284,-0.67227c1.06037,-1.14379 2.6555,-2.95009 4.25064,-4.83736c0.15214,-0.17997 0.30393,-0.36027 0.45532,-0.54087v-12.22327h-4.79764v-0.88618h5.68382zM253.54803,192.72564l-5.04209,-7.70066h1.22233l2.71966,4.27815c0.18458,0.29622 0.37396,0.58941 0.56808,0.87946c0.40152,0.59295 0.80296,1.186 1.20429,1.77911h0.12223c0.38717,-0.61116 0.74685,-1.19514 1.12485,-1.77911c0.19114,-0.29601 0.38663,-0.5892 0.58642,-0.87946l2.65856,-4.27815h1.16121l-5.0421,7.76177l5.53103,8.34237h-1.25289l-2.99471,-4.61429c-0.5806,-1.00841 -1.25289,-2.01684 -1.92516,-2.96415h-0.15278c-0.44776,0.64077 -0.87798,1.29363 -1.29017,1.95787c-0.21095,0.33587 -0.42263,0.6713 -0.635,1.00629l-2.90302,4.61429h-1.19177zM208.71923,185.02497h0.91674l0.18335,2.07794h0.06111c1.58904,-1.25289 3.5142,-2.47521 5.53103,-2.47521c0.30209,-0.00055 0.60397,0.01589 0.90423,0.0492c2.74505,0.30956 4.45477,2.06053 5.17624,4.78511c0.27753,1.10684 0.41124,2.24482 0.39786,3.38584c0,5.46992 -3.30028,8.67853 -7.1506,8.67853c-0.41145,-0.00212 -0.82131,-0.05102 -1.22172,-0.14576c-0.60841,-0.14057 -1.23424,-0.38016 -1.87077,-0.70895c-0.64024,-0.33611 -1.25148,-0.72483 -1.82738,-1.16213v9.0452h-1.10009zM245.33829,200.15616c-0.87856,0.51919 -1.86313,1.03836 -3.25139,1.2593c-0.48463,0.07558 -0.97448,0.11267 -1.46496,0.11093c-1.38338,0.01226 -2.74017,-0.3801 -3.9035,-1.12882c-1.26297,-0.82232 -2.26924,-2.0755 -2.86422,-3.69601c-0.40805,-1.14845 -0.61009,-2.35995 -0.59679,-3.57867c0,-2.4636 0.7386,-4.48441 1.89155,-5.93592c1.19977,-1.58222 3.05976,-2.52574 5.04515,-2.55923c0.0977,-0.00005 0.19542,0.00179 0.29306,0.00549c2.73159,0.10481 4.6806,1.68711 5.43844,4.51649c0.24248,0.94852 0.36002,1.92466 0.34958,2.90364c0.00003,0.05531 -0.00007,0.11063 -0.00031,0.16594c-0.00091,0.16655 -0.00398,0.33674 -0.0171,0.52163c-0.00958,0.138 -0.02416,0.27559 -0.04371,0.41253h-11.79546c-0.01296,1.18056 0.20171,2.35253 0.63224,3.45185c0.85282,2.37037 3.1132,3.94066 5.63218,3.91267c0.48478,0.00173 0.96862,-0.04238 1.44509,-0.13172c1.08308,-0.21464 2.10373,-0.671 2.98583,-1.33508l0.48893,0.9473c-0.08804,0.05285 -0.17625,0.10542 -0.26464,0.15768zM229.46576,201.40477c-0.2738,0.06081 -0.45746,0.12162 -0.9143,0.12162c-1.03898,0 -1.65014,-0.64172 -1.65014,-2.20018v-22.46024h1.1001v22.6436c-0.00004,0.00856 -0.00004,0.01711 0,0.02567c0.00275,0.2729 0.04644,0.48893 0.12711,0.64782c0.09678,0.21203 0.31226,0.34441 0.54516,0.33492c0.10329,0 0.20627,0 0.43789,-0.03667c0.04765,-0.00762 0.09523,-0.01577 0.1427,-0.02445l0.2139,0.9473c-0.00081,0.0002 -0.00163,0.00041 -0.00246,0.00061zM263.84614,191.22829h11.21485v11.67322h-0.88618v-1.71127h-9.44247v2.07794h-0.88617zM210.59335,198.94574c1.61256,1.13983 3.12977,1.57222 4.23749,1.57222c1.24302,0.00594 2.44585,-0.43996 3.38463,-1.25473c0.85134,-0.72851 1.52517,-1.7461 1.95969,-2.97851c0.37732,-1.10613 0.56444,-2.26821 0.55341,-3.43687c0,-3.16704 -0.87733,-5.74921 -3.0989,-6.75673c-0.72844,-0.31548 -1.51621,-0.47067 -2.30988,-0.455c-0.11086,0.00007 -0.22168,0.00456 -0.33217,0.01345c-1.55938,0.12437 -3.25751,1.11323 -5.1683,2.76735v9.93141c0.24968,0.20971 0.50791,0.40901 0.77404,0.59741zM307.08593,178.11884v9.41192h10.97037v-9.41192zM295.13771,201.43472v1.58903h-0.91674v-10.14531h8.67852v8.55629zM245.06784,190.28526c-0.4984,-3.11785 -2.31416,-4.64911 -4.87372,-4.64911c-1.14356,0.00348 -2.25286,0.39067 -3.15024,1.09949c-1.40598,1.09154 -2.42235,2.95528 -2.62525,5.40941h10.78703c0.00318,-0.62258 -0.04289,-1.24445 -0.13782,-1.85977zM295.13771,193.79517v6.7228h6.84503v-6.7228zM303.90788,181.75526h-11.0926v-0.91674h11.0926zM302.89946,185.75838h-8.67852v-0.88618h8.67852zM294.22096,188.87531h8.67852v0.88617h-8.67852zM302.74668,177.84381h-8.40349v-0.88617h8.40349zM269.22438,200.30406v-3.72809h-4.49205v3.72809zM264.73232,192.11447v3.57531h4.49205v-3.57531zM274.1748,200.30406v-3.72809h-4.06423v3.72809zM274.1748,192.11447h-4.06423v3.57531h4.06423zM277.11541,182.39301c-0.04255,-0.0906 -0.08565,-0.18096 -0.12926,-0.27106l0.7334,-0.30558c0.04628,0.0912 0.09201,0.18268 0.13721,0.27442c0.95891,1.94564 1.86587,4.37869 2.21577,5.83722l-0.82507,0.42781c-0.32086,-1.51691 -1.2263,-4.0358 -2.13204,-5.96281zM285.91676,187.68689c-0.46907,-1.39467 -1.3247,-3.36016 -2.18032,-4.97273c-0.08893,-0.16779 -0.17959,-0.33464 -0.27197,-0.50054l0.70284,-0.30558c0.89688,1.51935 1.81392,3.44513 2.3704,4.8994c0.11554,0.29888 0.22184,0.60123 0.31873,0.90666l-0.79451,0.42781c-0.04589,-0.15246 -0.09427,-0.30414 -0.14515,-0.455zM265.85564,182.44984c-0.32392,-0.92194 -0.81101,-2.18797 -1.2761,-3.16979l0.82507,-0.18335c0.03305,0.07196 0.06595,0.14396 0.0987,0.21604c0.49961,1.09918 1.0796,2.46544 1.33753,3.2676l-0.82507,0.33614c-0.05213,-0.15597 -0.10548,-0.31153 -0.16012,-0.46662z" stroke-width="0"/><path d="M323.73102,168.53156h0.76476l0.90243,2.17192l0.53533,1.48365h0.06118l0.53533,-1.48365l0.87184,-2.17192h0.76476v5.1545h-0.52004v-2.84492l0.06118,-1.6213h-0.06118l-1.43776,3.65556h-0.52004l-1.42246,-3.65556h-0.07647l0.07647,1.6213v2.84492h-0.53534zM320.45783,169.02101h-1.85073v-0.48945h4.22149v0.48945h-1.85073v4.66505h-0.52004z" stroke-width="0.25"/></g><g fill-rule="nonzero" stroke-linecap="butt"><g><path d="M155.16324,199.95177v-19.90863h27.36778v19.90863h-15.32312l-6.29094,7.13404v-7.13404z" fill="#20bdce" stroke="#f2f2f2" stroke-width="0"/><text transform="translate(163.40867,195.623) scale(0.39009,0.39009)" font-size="40" xml:space="preserve" fill="#ffffff" fill-rule="nonzero" stroke="none" stroke-width="1" stroke-linecap="butt" stroke-linejoin="miter" stroke-miterlimit="10" stroke-dasharray="" stroke-dashoffset="0" font-family="Serif" font-weight="normal" text-anchor="start" style="mix-blend-mode: normal"><tspan x="0" dy="0">A</tspan></text></g><g><path d="M175.59735,192.3099v-19.90863h27.36778v19.90863h-4.65939v6.80197l-5.61902,-6.80197z" fill="#2a688f" stroke="#f2f2f2" stroke-width="0"/><text transform="translate(182.18803,187.05002) scale(0.3795,0.3795)" font-size="40" xml:space="preserve" fill="#ffffff" fill-rule="nonzero" stroke="none" stroke-width="1" stroke-linecap="butt" stroke-linejoin="miter" stroke-miterlimit="10" stroke-dasharray="" stroke-dashoffset="0" font-family="Malgun Gothic" font-weight="normal" text-anchor="start" style="mix-blend-mode: normal"><tspan x="0" dy="0">あ</tspan></text></g></g></g></g></g></svg>
